# FoxGirl fixture, cloth-fit garment-data, Blender (x,y,z) -> Godot (x,z,-y)
# scale 0.283917636 (avatar height 5.987652 -> 1.700 m), then y += -0.281784847 (feet on y=0)
# written by tools/fixtures/foxgirl_convert.py; see CITATION.cff
v 3.970383 -0.2817482 -0
v 3.970383 -0.2131568 -0
v 3.970383 -0.04387408 1.646722e-05
v 4.03623 -0.08546489 0.007778491
v 4.095711 -0.171187 0.0004698837
v 4.160366 -0.2667599 0.02533795
v 3.904535 -0.08546489 0.007778491
v 3.780399 -0.2667599 0.02533795
v 3.845054 -0.171187 0.0004698837
v 4.012456 -0.3047742 0
v 4.041361 -0.4834779 0
v 4.061162 -0.6687663 -0.007021567
v 3.928309 -0.3047742 0
v 3.899404 -0.4834779 0.002870975
v 3.879603 -0.6687663 -0.004150592
l 1 2
l 2 3
l 2 4
l 4 5
l 5 6
l 2 7
l 7 9
l 8 9
l 1 10
l 10 11
l 11 12
l 1 13
l 13 14
l 14 15
