# FoxGirl fixture, cloth-fit garment-data, Blender (x,y,z) -> Godot (x,z,-y)
# scale 0.283917636 (avatar height 5.987652 -> 1.700 m), then y += -0.281784847 (feet on y=0)
# written by tools/fixtures/foxgirl_convert.py; see CITATION.cff
v -0.0001127153 0.9527523 -0.02727852
v 6.899199e-05 1.047043 -0.01668328
v 0.000258365 1.342782 -0.008298345
v 0.09960427 1.272765 -0.01551042
v 0.2356675 1.114168 -0.01329728
v 0.3795854 0.9628558 -0.01278481
v -0.0939526 1.272628 -0.01555159
v -0.37479 0.9638513 -0.01255313
v -0.231501 1.114204 -0.01329558
v 0.09713106 0.8816315 -0.02719051
v 0.1338206 0.5249203 -0.0298369
v 0.1753271 0.03354572 -0.03855062
v -0.09877353 0.8816128 -0.02710193
v -0.1355582 0.5249242 -0.02977359
v -0.1767805 0.0336167 -0.03848929
l 1 2
l 2 3
l 2 4
l 4 5
l 5 6
l 2 7
l 7 9
l 8 9
l 1 10
l 10 11
l 11 12
l 1 13
l 13 14
l 14 15
